<?xml version="1.0" encoding="UTF-8" standalone="no"?>
<svg
   xmlns:dc="http://purl.org/dc/elements/1.1/"
   xmlns:cc="http://creativecommons.org/ns#"
   xmlns:rdf="http://www.w3.org/1999/02/22-rdf-syntax-ns#"
   xmlns:svg="http://www.w3.org/2000/svg"
   xmlns="http://www.w3.org/2000/svg"
   viewBox="0 0 1000 666.66669"
   height="666.66669"
   width="1000"
   xml:space="preserve"
   id="svg2"
   version="1.1"><metadata
     id="metadata8"><rdf:RDF><cc:Work
         rdf:about=""><dc:format>image/svg+xml</dc:format><dc:type
           rdf:resource="http://purl.org/dc/dcmitype/StillImage" /></cc:Work></rdf:RDF></metadata><defs
     id="defs6" /><g
     transform="matrix(1.3333333,0,0,-1.3333333,0,666.66667)"
     id="g10"><g
       transform="scale(0.1)"
       id="g12"><path
         id="path14"
         style="fill:#5775c2;fill-opacity:1;fill-rule:nonzero;stroke:none"
         d="M 0,0 H 7500 V 5000 H 0 Z" /><path
         id="path16"
         style="fill:#4965b9;fill-opacity:1;fill-rule:nonzero;stroke:none"
         d="M 7500,828.16 H 227.551 c 381.91,281.23 1080.259,423.5 1408.649,423.5 16.79,0 32.55,-0.37 47.32,-1.11 38.28,-1.93 75.22,-2.87 110.62,-2.87 379.78,0 596.37,107.29 719.62,248.35 141,-61.91 272.23,-140.25 388.08,-238.34 0,0 354.62,191.27 836.04,277 -3.75,-15.11 -5.74,-30.9 -5.74,-47.17 l 0.01,-1.8 c 0.74,-82.28 70.13,-147.54 152.41,-147.54 h 167.97 c 1.29,1.07 2.46,2.12 3.75,3.18 1.65,-1.06 3.29,-2.11 4.93,-3.18 h 687.82 c 67.43,0 126.19,43.82 145.62,104.93 131.52,-53.47 260.93,-125.54 384.89,-220.31 0,0 609.97,281.81 1200.57,281.81 433.02,0 855.59,-151.43 1019.89,-676.45" /><path
         id="path18"
         style="fill:#6784cb;fill-opacity:1;fill-rule:nonzero;stroke:none"
         d="m 4996.01,3604.72 h -455.22 c -1.08,0.69 -2.17,1.4 -3.26,2.1 l -2.48,-2.1 h -111.17 c -54.46,0 -100.37,43.19 -100.86,97.64 l -0.01,1.19 c 0,71.32 57.81,129.13 129.13,129.13 4.74,0 9.32,-0.31 13.91,-0.78 27.19,71.64 96.5,122.61 177.69,122.61 51.29,0 97.74,-20.28 131.93,-53.3 20.13,15.46 45.23,24.79 72.65,24.79 57.03,0 104.66,-40.02 116.47,-93.48 1.01,0 1.94,0.16 2.95,0.16 71.33,0 129.13,-57.81 129.13,-129.13 v -1.19 c -0.49,-54.45 -46.41,-97.64 -100.86,-97.64" /><path
         id="path20"
         style="fill:#6784cb;fill-opacity:1;fill-rule:nonzero;stroke:none"
         d="m 4894.65,1443.11 c -236.93,96.31 -480.84,132.29 -713.36,132.29 -154.75,0 -304.34,-15.95 -443.41,-40.71 21.1,84.97 97.88,147.95 189.37,147.95 7.17,0 14.1,-0.47 21.02,-1.18 41.09,108.25 145.81,185.26 268.5,185.26 77.48,0 147.68,-30.65 199.34,-80.54 30.41,23.37 68.33,37.45 109.77,37.45 86.17,0 158.13,-60.46 175.98,-141.23 1.53,0 2.93,0.24 4.47,0.24 107.77,0 195.11,-87.35 195.11,-195.12 v -1.8 c -0.14,-14.85 -2.51,-29.15 -6.79,-42.61" /><path
         id="path22"
         style="fill:#5b76c3;fill-opacity:1;fill-rule:nonzero;stroke:none"
         d="m 4749.03,1338.18 h -687.82 c -1.64,1.07 -3.28,2.12 -4.93,3.18 -1.29,-1.06 -2.46,-2.11 -3.75,-3.18 h -167.97 c -82.28,0 -151.67,65.26 -152.41,147.54 l -0.01,1.8 c 0,16.27 1.99,32.06 5.74,47.17 139.07,24.76 288.66,40.71 443.41,40.71 232.52,0 476.43,-35.98 713.36,-132.29 -19.43,-61.11 -78.19,-104.93 -145.62,-104.93" /><path
         id="path24"
         style="fill:#6784cb;fill-opacity:1;fill-rule:nonzero;stroke:none"
         d="m 7038.91,3156.24 h -517.17 c -1.23,0.79 -2.47,1.58 -3.71,2.38 -0.97,-0.8 -1.85,-1.59 -2.82,-2.38 h -126.3 c -61.87,0 -114.04,49.06 -114.59,110.93 l -0.01,1.35 c 0,81.04 65.67,146.71 146.71,146.71 5.39,0 10.59,-0.35 15.8,-0.88 30.89,81.39 109.64,139.3 201.88,139.3 58.26,0 111.06,-23.04 149.89,-60.56 22.86,17.56 51.38,28.16 82.54,28.16 64.79,0 118.9,-45.46 132.32,-106.2 1.15,0 2.2,0.18 3.36,0.18 81.03,0 146.7,-65.67 146.7,-146.71 v -1.35 c -0.55,-61.87 -52.72,-110.93 -114.6,-110.93" /><path
         id="path26"
         style="fill:#6784cb;fill-opacity:1;fill-rule:nonzero;stroke:none"
         d="m 5878.93,4223.86 h -758.42 c -1.82,1.16 -3.62,2.33 -5.44,3.5 -1.43,-1.17 -2.72,-2.34 -4.14,-3.5 h -185.22 c -90.72,0 -167.22,71.95 -168.04,162.68 l -0.01,1.98 c 0,118.84 96.31,215.15 215.14,215.15 7.9,0 15.54,-0.53 23.18,-1.3 45.31,119.35 160.78,204.27 296.05,204.27 85.44,0 162.84,-33.78 219.8,-88.8 33.53,25.76 75.35,41.3 121.04,41.3 95.02,0 174.37,-66.68 194.04,-155.74 1.69,0 3.25,0.27 4.93,0.27 118.83,0 215.14,-96.31 215.14,-215.15 l -0.01,-1.98 c -0.82,-90.73 -77.31,-162.68 -168.04,-162.68" /><path
         id="path28"
         style="fill:#6784cb;fill-opacity:1;fill-rule:nonzero;stroke:none"
         d="m 4933.81,2236.33 h -417.35 c -0.99,0.64 -1.99,1.29 -2.99,1.92 l -2.28,-1.92 h -101.91 c -49.93,0 -92.03,39.6 -92.48,89.52 v 1.09 c 0,65.39 52.99,118.4 118.39,118.4 4.34,0 8.54,-0.29 12.75,-0.72 24.93,65.68 88.47,112.41 162.91,112.41 47.01,0 89.61,-18.59 120.96,-48.87 18.44,14.18 41.45,22.73 66.6,22.73 52.28,0 95.95,-36.69 106.77,-85.7 0.93,0 1.79,0.15 2.72,0.15 65.39,0 118.39,-53.01 118.39,-118.4 l -0.01,-1.09 c -0.45,-49.92 -42.55,-89.52 -92.47,-89.52" /><path
         id="path30"
         style="fill:#3e59b1;fill-opacity:1;fill-rule:nonzero;stroke:none"
         d="M 5815.26,140.582 C 4459.77,140.57 3136.03,213.219 3355.05,450.34 3460.57,564.582 3280.38,725.922 3135.38,828.16 H 227.551 v 0 H 7500 V 175.199 C 7019.15,154.762 6414.05,140.582 5815.26,140.582 M 5546.82,568.02 c -422.66,0 -765.28,-47.981 -765.28,-107.168 0,-59.192 342.62,-107.172 765.28,-107.172 422.64,0 765.27,47.98 765.27,107.172 0,59.187 -342.63,107.168 -765.27,107.168" /><path
         id="path32"
         style="fill:#3a56ae;fill-opacity:1;fill-rule:nonzero;stroke:none"
         d="M 7500,0 H 0 V 828.16 568.02 c 43.2695,96.941 123.715,183.671 227.551,260.14 H 3135.38 c 145,-102.238 325.19,-263.578 219.67,-377.82 -219.02,-237.121 1104.72,-309.77 2460.21,-309.758 598.79,0 1203.89,14.18 1684.74,34.617 V 0" /><path
         id="path34"
         style="fill:#4d6cbd;fill-opacity:1;fill-rule:nonzero;stroke:none"
         d="m 4284.08,4014.2 c -8.11,1.48 -16.75,-7.42 -21.17,-20.76 l -30.32,10.1 c 5.53,15.32 8.56,31.84 8.56,49.07 0,23.85 -5.81,46.32 -16.03,66.14 l 23.01,17.04 c 10.19,-8.89 22.03,-11.88 27.44,-6.46 5.86,5.86 1.95,19.28 -8.73,29.96 -10.69,10.69 -24.11,14.59 -29.96,8.73 -4.82,-4.81 -2.96,-14.71 3.74,-24.01 l -20.98,-15.53 c -14.3,23.14 -34.93,41.93 -59.48,53.98 l 1.76,17.91 c 9.5,-0.16 17.1,3.26 18.12,8.82 1.23,6.79 -7.8,14.12 -20.18,16.37 -12.38,2.25 -23.41,-1.43 -24.65,-8.22 -1.08,-5.96 5.72,-12.32 15.75,-15.32 l -1.48,-14.88 c -16.38,6.45 -34.22,10.04 -52.9,10.04 -7.06,0 -13.96,-0.63 -20.76,-1.61 l 0.13,0.11 -2.67,-0.45 c -1.06,-0.17 -2.13,-0.34 -3.18,-0.54 -3.3,-0.61 -6.56,-1.33 -9.78,-2.15 l -2.33,-0.65 c -3.48,-0.95 -6.92,-1.99 -10.28,-3.2 l -4.84,14.38 c 10.73,3.61 17.92,10.45 16.87,17.12 -0.33,2.04 -1.39,3.88 -3.04,5.44 -4.94,4.67 -15.14,6.89 -26.33,5.12 -1.87,-0.29 -3.67,-0.68 -5.4,-1.16 -8.64,-2.37 -15.36,-6.85 -18.08,-11.82 -1.08,-2 -1.53,-4.07 -1.21,-6.11 0.45,-2.86 2.35,-5.28 5.26,-7.13 3.88,-2.46 9.57,-3.9 16.03,-3.96 1.62,-0.02 3.28,0.05 4.98,0.21 l 5.48,-16.27 c -27.16,-12.2 -49.87,-32.51 -65.03,-57.88 l -18.77,11.19 0.19,0.9 c 1.24,6.79 1.25,13.3 0.26,18.89 -0.66,3.72 -1.77,7.03 -3.25,9.73 -0.74,1.35 -1.58,2.55 -2.51,3.58 -1.85,2.05 -4.04,3.4 -6.53,3.85 l -1.87,0.16 c -9.37,-0.03 -18.99,-12.7 -22.07,-29.67 -1.44,-7.92 -1.22,-15.46 0.31,-21.6 1.11,-4.37 2.88,-8.03 5.18,-10.6 1.86,-2.04 4.05,-3.39 6.54,-3.85 0.95,-0.17 1.91,-0.2 2.85,-0.11 1.92,0.19 3.83,0.88 5.69,2.03 1.85,1.14 3.64,2.73 5.33,4.68 2.52,2.94 4.79,6.71 6.6,11.07 l 16.74,-9.99 c -9.63,-19.36 -15.08,-41.18 -15.08,-64.28 0,-9.57 0.94,-18.92 2.72,-27.97 2.97,-15.08 8.28,-29.32 15.52,-42.33 l -12.99,-3.66 c -6.1,13.09 -16.61,21.08 -23.98,17.91 -3.8,-1.64 -6.04,-5.94 -6.58,-11.56 -0.54,-5.63 0.62,-12.57 3.61,-19.51 0.74,-1.74 1.57,-3.39 2.46,-4.94 6.21,-10.9 15.48,-17.13 22.15,-14.26 5.9,2.54 7.98,11.49 5.85,21.84 l 15.48,4.36 c 19.62,-29.41 49.75,-51.23 85.01,-60.08 l -1.08,-15.26 c -16.47,2.26 -30.69,-2.89 -32.36,-12.03 -1.52,-8.42 8.08,-17.41 22.24,-21.67 2.02,-0.6 4.14,-1.12 6.33,-1.51 3.29,-0.6 6.5,-0.9 9.58,-0.93 3.07,-0.04 6,0.2 8.7,0.68 5.41,0.96 9.91,2.88 12.89,5.57 0.98,0.89 1.82,1.88 2.44,2.93 0.63,1.06 1.06,2.19 1.28,3.39 0.18,1 0.2,2.01 0.09,3.02 -0.49,4.02 -3.32,8.04 -7.79,11.48 -3.35,2.56 -7.61,4.81 -12.5,6.49 l 1.12,15.56 c 3.96,-0.67 7.98,-1.19 12.05,-1.55 4.06,-0.35 8.17,-0.54 12.33,-0.54 3.96,0 7.86,0.16 11.74,0.48 19.36,1.55 37.63,6.93 54.07,15.37 6.58,3.38 12.87,7.24 18.82,11.54 l 4.84,-11.32 c -10.98,-8.39 -16.36,-19.7 -11.99,-26.13 1.16,-1.72 2.91,-2.92 5.06,-3.62 1.09,-0.36 2.27,-0.59 3.53,-0.7 1.26,-0.11 2.6,-0.09 4.01,0.05 5.62,0.53 12.22,2.99 18.47,7.24 1.56,1.06 3.02,2.18 4.38,3.36 5.44,4.66 9.2,10.02 10.66,14.87 0.36,1.22 0.57,2.4 0.64,3.53 0.14,2.27 -0.34,4.33 -1.5,6.04 l -1.68,1.82 c -4.52,3.66 -13.09,3.26 -21.99,-0.72 l -5.42,12.66 c 2.62,2.23 5.12,4.58 7.57,6.99 l 1.25,1.26 c 2.38,2.38 4.68,4.84 6.89,7.39 v 0 c 9.07,10.5 16.69,22.29 22.47,35.11 l 32.04,-10.67 c -2.08,-16.25 3.06,-30.2 12.12,-31.85 9.61,-1.75 19.99,11.05 23.17,28.57 3.19,17.52 -2.03,33.14 -11.65,34.89" /><path
         id="path36"
         style="fill:#4d6cbd;fill-opacity:1;fill-rule:nonzero;stroke:none"
         d="m 6690.51,4144.83 c -5.62,1.02 -11.6,-5.14 -14.67,-14.38 l -21.02,6.99 c 3.84,10.62 5.94,22.07 5.94,34.01 0,16.51 -4.02,32.09 -11.11,45.82 l 15.95,11.81 c 7.06,-6.15 15.26,-8.23 19.01,-4.48 4.06,4.06 1.35,13.36 -6.06,20.76 -7.4,7.41 -16.69,10.11 -20.76,6.05 -3.33,-3.33 -2.05,-10.19 2.6,-16.64 l -14.53,-10.75 c -9.91,16.03 -24.21,29.05 -41.22,37.4 l 1.22,12.41 c 6.58,-0.11 11.85,2.26 12.56,6.11 0.85,4.7 -5.41,9.78 -13.99,11.34 -8.57,1.56 -16.22,-0.99 -17.08,-5.7 -0.74,-4.12 3.97,-8.53 10.91,-10.6 l -1.01,-10.32 c -11.36,4.47 -23.71,6.96 -36.66,6.96 -4.9,0 -9.68,-0.44 -14.38,-1.12 l 0.08,0.08 -1.85,-0.31 -2.2,-0.38 c -2.29,-0.42 -4.54,-0.91 -6.78,-1.49 l -1.61,-0.45 c -2.4,-0.66 -4.79,-1.38 -7.12,-2.22 l -3.35,9.97 c 7.43,2.5 12.41,7.25 11.68,11.86 -0.23,1.42 -0.97,2.69 -2.11,3.77 -3.42,3.24 -10.49,4.78 -18.24,3.55 -1.29,-0.2 -2.54,-0.48 -3.74,-0.8 -5.99,-1.65 -10.64,-4.75 -12.52,-8.2 -0.75,-1.38 -1.07,-2.81 -0.84,-4.24 0.31,-1.97 1.62,-3.65 3.64,-4.93 2.69,-1.71 6.62,-2.7 11.1,-2.75 1.13,-0.01 2.28,0.04 3.46,0.15 l 3.79,-11.27 c -18.82,-8.45 -34.56,-22.53 -45.06,-40.11 l -13.01,7.76 0.14,0.62 c 0.85,4.71 0.86,9.22 0.18,13.09 -0.46,2.58 -1.22,4.87 -2.25,6.74 -0.52,0.94 -1.09,1.77 -1.74,2.48 -1.28,1.42 -2.8,2.35 -4.53,2.67 l -1.29,0.11 c -6.49,-0.02 -13.16,-8.8 -15.3,-20.56 -1,-5.48 -0.84,-10.71 0.22,-14.96 0.76,-3.04 1.99,-5.57 3.6,-7.35 1.28,-1.42 2.8,-2.35 4.52,-2.67 l 1.98,-0.07 c 1.33,0.13 2.65,0.61 3.94,1.4 1.28,0.8 2.53,1.89 3.69,3.25 1.75,2.03 3.32,4.64 4.58,7.67 l 11.6,-6.93 c -6.68,-13.41 -10.45,-28.53 -10.45,-44.53 0,-6.64 0.64,-13.11 1.87,-19.38 2.07,-10.45 5.75,-20.32 10.77,-29.34 l -9.02,-2.53 c -4.22,9.07 -11.49,14.6 -16.6,12.4 -2.64,-1.13 -4.19,-4.11 -4.56,-8.01 -0.37,-3.89 0.43,-8.7 2.5,-13.51 0.52,-1.2 1.08,-2.35 1.7,-3.43 4.31,-7.55 10.73,-11.86 15.35,-9.87 4.09,1.76 5.53,7.96 4.05,15.13 l 10.73,3.02 c 13.6,-20.38 34.47,-35.5 58.9,-41.63 l -0.75,-10.57 c -11.4,1.56 -21.26,-2.01 -22.41,-8.34 -1.07,-5.84 5.59,-12.07 15.4,-15.01 1.41,-0.42 2.87,-0.77 4.39,-1.05 2.28,-0.42 4.51,-0.62 6.64,-0.65 2.12,-0.02 4.16,0.14 6.03,0.48 3.74,0.66 6.87,1.99 8.93,3.85 l 1.69,2.03 0.88,2.36 0.06,2.09 c -0.33,2.78 -2.29,5.57 -5.39,7.95 -2.32,1.78 -5.27,3.34 -8.66,4.5 l 0.77,10.78 c 2.75,-0.46 5.54,-0.83 8.35,-1.08 2.81,-0.24 5.67,-0.37 8.55,-0.37 2.74,0 5.45,0.11 8.13,0.33 13.41,1.08 26.07,4.81 37.47,10.66 4.56,2.33 8.92,5.01 13.04,7.99 l 3.36,-7.84 c -7.62,-5.82 -11.35,-13.66 -8.31,-18.11 0.8,-1.19 2.01,-2.03 3.5,-2.51 l 2.44,-0.48 c 0.87,-0.08 1.81,-0.06 2.78,0.03 3.89,0.37 8.47,2.07 12.8,5.02 1.08,0.73 2.1,1.52 3.04,2.32 3.77,3.24 6.37,6.95 7.38,10.32 l 0.45,2.44 c 0.09,1.57 -0.23,3 -1.04,4.19 l -1.17,1.26 c -3.13,2.53 -9.07,2.25 -15.23,-0.5 l -3.76,8.77 c 1.82,1.54 3.55,3.17 5.25,4.84 l 0.86,0.87 c 1.65,1.65 3.24,3.36 4.78,5.12 v 0.01 c 6.28,7.27 11.56,15.44 15.56,24.32 l 22.21,-7.39 c -1.44,-11.27 2.12,-20.93 8.39,-22.07 6.66,-1.21 13.86,7.65 16.06,19.79 2.21,12.14 -1.4,22.97 -8.07,24.18" /><path
         id="path38"
         style="fill:#4d6cbd;fill-opacity:1;fill-rule:nonzero;stroke:none"
         d="m 7136.94,2535.51 c -10.68,1.95 -22.06,-9.77 -27.89,-27.34 l -39.94,13.29 c 7.29,20.19 11.28,41.95 11.28,64.65 0,31.4 -7.66,61.01 -21.12,87.12 l 30.31,22.45 c 13.44,-11.71 29.01,-15.65 36.14,-8.52 7.73,7.72 2.58,25.39 -11.49,39.47 -14.08,14.07 -31.75,19.22 -39.47,11.5 -6.34,-6.34 -3.9,-19.38 4.93,-31.63 l -27.64,-20.46 c -18.83,30.48 -46.01,55.24 -78.35,71.11 l 2.33,23.59 c 12.51,-0.2 22.52,4.29 23.86,11.61 1.62,8.95 -10.27,18.61 -26.58,21.57 -16.3,2.96 -30.84,-1.89 -32.46,-10.83 -1.43,-7.84 7.53,-16.22 20.73,-20.17 l -1.93,-19.6 c -21.59,8.5 -45.08,13.21 -69.69,13.21 -9.31,0 -18.4,-0.82 -27.34,-2.12 l 0.16,0.16 c -1.18,-0.17 -2.33,-0.4 -3.5,-0.6 -1.41,-0.22 -2.82,-0.45 -4.21,-0.71 -4.35,-0.8 -8.63,-1.75 -12.87,-2.84 -1.04,-0.26 -2.05,-0.56 -3.07,-0.84 -4.58,-1.26 -9.11,-2.64 -13.54,-4.23 l -6.37,18.95 c 14.13,4.75 23.59,13.77 22.21,22.55 -0.43,2.7 -1.83,5.11 -4.01,7.16 -6.5,6.16 -19.93,9.08 -34.68,6.75 -2.46,-0.38 -4.83,-0.9 -7.11,-1.53 -11.38,-3.13 -20.23,-9.02 -23.8,-15.58 -1.44,-2.62 -2.03,-5.35 -1.61,-8.04 0.6,-3.76 3.1,-6.96 6.93,-9.39 5.12,-3.24 12.6,-5.14 21.12,-5.22 2.13,-0.02 4.33,0.06 6.56,0.27 l 7.21,-21.42 c -35.77,-16.07 -65.69,-42.82 -85.65,-76.25 l -24.73,14.75 0.25,1.19 c 1.63,8.94 1.64,17.52 0.35,24.87 -0.87,4.9 -2.33,9.26 -4.29,12.83 -0.98,1.77 -2.08,3.36 -3.3,4.71 -2.43,2.69 -5.33,4.47 -8.61,5.07 l -2.46,0.21 c -12.35,-0.04 -25.02,-16.73 -29.08,-39.08 -1.89,-10.44 -1.6,-20.37 0.43,-28.45 1.44,-5.76 3.77,-10.59 6.82,-13.96 2.44,-2.7 5.33,-4.48 8.6,-5.07 1.25,-0.23 2.51,-0.27 3.77,-0.15 2.52,0.24 5.04,1.16 7.48,2.67 2.44,1.51 4.81,3.59 7.02,6.17 3.32,3.86 6.31,8.83 8.7,14.58 l 22.05,-13.15 c -12.68,-25.52 -19.86,-54.26 -19.86,-84.68 0,-12.61 1.23,-24.93 3.58,-36.85 3.9,-19.86 10.9,-38.62 20.45,-55.75 l -17.12,-4.82 c -8.03,17.23 -21.87,27.76 -31.58,23.58 -5.02,-2.16 -7.96,-7.82 -8.67,-15.22 -0.71,-7.41 0.82,-16.56 4.76,-25.7 0.97,-2.29 2.07,-4.47 3.23,-6.52 8.19,-14.35 20.4,-22.54 29.18,-18.77 7.77,3.35 10.51,15.14 7.71,28.77 l 20.39,5.75 c 25.84,-38.76 65.51,-67.48 111.98,-79.15 l -1.44,-20.1 c -21.69,2.98 -40.42,-3.8 -42.61,-15.85 -2.01,-11.09 10.64,-22.93 29.29,-28.54 2.67,-0.8 5.45,-1.47 8.34,-1.99 4.33,-0.79 8.57,-1.19 12.61,-1.23 4.05,-0.04 7.91,0.26 11.46,0.9 7.12,1.26 13.06,3.8 16.99,7.34 1.3,1.17 2.38,2.47 3.21,3.86 0.83,1.4 1.41,2.88 1.69,4.46 0.24,1.32 0.27,2.65 0.11,3.98 -0.64,5.31 -4.37,10.59 -10.25,15.11 -4.41,3.39 -10.03,6.35 -16.46,8.56 l 1.46,20.5 c 5.23,-0.89 10.52,-1.57 15.87,-2.04 5.35,-0.46 10.77,-0.71 16.25,-0.71 5.21,0 10.36,0.21 15.46,0.62 25.5,2.05 49.56,9.14 71.23,20.26 8.66,4.44 16.94,9.53 24.79,15.2 l 6.38,-14.91 c -14.47,-11.06 -21.57,-25.96 -15.81,-34.43 1.54,-2.25 3.84,-3.85 6.68,-4.77 1.42,-0.47 2.97,-0.78 4.64,-0.91 1.66,-0.14 3.43,-0.13 5.28,0.06 7.41,0.7 16.1,3.94 24.33,9.54 2.06,1.39 3.98,2.88 5.78,4.41 7.17,6.15 12.11,13.21 14.02,19.61 0.48,1.59 0.78,3.15 0.86,4.64 0.18,2.98 -0.45,5.7 -1.99,7.96 -0.61,0.91 -1.36,1.71 -2.21,2.4 -5.94,4.81 -17.23,4.29 -28.95,-0.96 l -7.14,16.68 c 3.45,2.94 6.74,6.04 9.97,9.21 l 1.64,1.65 c 3.14,3.15 6.16,6.39 9.07,9.74 11.96,13.83 21.99,29.36 29.59,46.24 l 42.22,-14.05 c -2.74,-21.4 4.03,-39.78 15.96,-41.94 12.66,-2.31 26.34,14.54 30.53,37.62 4.19,23.08 -2.68,43.66 -15.35,45.96" /><path
         id="path40"
         style="fill:#4d6cbd;fill-opacity:1;fill-rule:nonzero;stroke:none"
         d="m 3050.69,1713.22 c -5.87,1.07 -12.11,-5.37 -15.31,-15.01 l -21.92,7.3 c 4,11.08 6.18,23.03 6.18,35.49 0,17.23 -4.2,33.48 -11.59,47.82 l 16.64,12.31 c 7.38,-6.42 15.93,-8.58 19.84,-4.67 4.24,4.24 1.41,13.94 -6.31,21.66 -7.73,7.73 -17.43,10.55 -21.67,6.31 -3.48,-3.47 -2.14,-10.63 2.71,-17.35 l -15.17,-11.23 c -10.34,16.73 -25.25,30.32 -43.01,39.03 l 1.28,12.94 c 6.87,-0.11 12.37,2.37 13.1,6.38 0.89,4.91 -5.64,10.21 -14.59,11.84 -8.95,1.63 -16.92,-1.04 -17.82,-5.95 -0.78,-4.3 4.14,-8.9 11.38,-11.07 l -1.06,-10.76 c -11.85,4.67 -24.75,7.26 -38.25,7.26 -5.11,0 -10.1,-0.46 -15.01,-1.16 l 0.09,0.07 -1.92,-0.32 -2.31,-0.39 c -2.39,-0.44 -4.74,-0.96 -7.07,-1.56 l -1.68,-0.46 c -2.52,-0.69 -5,-1.45 -7.43,-2.32 l -3.5,10.4 c 7.75,2.61 12.95,7.56 12.19,12.38 -0.24,1.48 -1,2.8 -2.2,3.93 -3.57,3.38 -10.94,4.98 -19.03,3.7 -1.36,-0.21 -2.66,-0.49 -3.91,-0.83 -6.25,-1.72 -11.1,-4.96 -13.07,-8.56 -0.78,-1.44 -1.1,-2.93 -0.88,-4.41 0.33,-2.06 1.7,-3.82 3.81,-5.16 2.8,-1.78 6.91,-2.81 11.59,-2.86 1.17,-0.01 2.37,0.04 3.6,0.15 l 3.96,-11.75 c -19.64,-8.83 -36.06,-23.52 -47.02,-41.86 l -13.57,8.1 0.14,0.64 c 0.89,4.91 0.9,9.62 0.18,13.65 -0.47,2.7 -1.27,5.09 -2.34,7.05 -0.54,0.97 -1.15,1.84 -1.82,2.58 -1.33,1.49 -2.92,2.45 -4.72,2.79 l -1.35,0.11 c -6.78,-0.02 -13.73,-9.18 -15.96,-21.45 -1.04,-5.72 -0.88,-11.18 0.23,-15.62 0.79,-3.16 2.07,-5.81 3.74,-7.66 1.34,-1.48 2.93,-2.45 4.72,-2.78 l 2.08,-0.08 c 1.38,0.13 2.76,0.64 4.1,1.46 1.34,0.83 2.64,1.97 3.85,3.39 1.83,2.12 3.47,4.84 4.78,8.01 l 12.1,-7.23 c -6.96,-14 -10.9,-29.77 -10.9,-46.47 0,-6.93 0.67,-13.69 1.96,-20.23 2.15,-10.91 5.99,-21.2 11.23,-30.6 l -9.4,-2.65 c -4.4,9.46 -12,15.23 -17.33,12.94 -2.75,-1.18 -4.37,-4.29 -4.76,-8.35 -0.39,-4.07 0.45,-9.09 2.61,-14.11 0.54,-1.25 1.14,-2.45 1.78,-3.58 4.49,-7.88 11.19,-12.37 16.01,-10.3 4.27,1.84 5.77,8.31 4.23,15.79 l 11.2,3.16 c 14.18,-21.27 35.96,-37.04 61.46,-43.45 l -0.79,-11.03 c -11.9,1.63 -22.18,-2.09 -23.38,-8.71 -1.11,-6.08 5.83,-12.59 16.07,-15.65 1.46,-0.44 3,-0.81 4.58,-1.11 2.37,-0.42 4.7,-0.64 6.92,-0.67 2.23,-0.02 4.34,0.15 6.3,0.5 3.9,0.69 7.16,2.09 9.31,4.02 l 1.77,2.13 0.93,2.45 0.06,2.18 c -0.35,2.91 -2.4,5.81 -5.63,8.29 -2.42,1.87 -5.51,3.49 -9.04,4.7 l 0.81,11.26 c 2.87,-0.49 5.77,-0.87 8.71,-1.12 2.94,-0.26 5.91,-0.4 8.92,-0.4 2.85,0 5.69,0.12 8.48,0.35 14,1.12 27.21,5.02 39.11,11.11 4.75,2.44 9.3,5.23 13.6,8.35 l 3.5,-8.18 c -7.94,-6.08 -11.84,-14.25 -8.67,-18.9 0.84,-1.24 2.1,-2.11 3.66,-2.63 0.78,-0.25 1.63,-0.42 2.54,-0.5 0.92,-0.07 1.89,-0.06 2.9,0.03 4.07,0.39 8.84,2.17 13.36,5.25 1.13,0.77 2.19,1.58 3.17,2.42 3.94,3.38 6.65,7.25 7.7,10.76 l 0.47,2.55 c 0.1,1.64 -0.25,3.13 -1.09,4.37 l -1.21,1.31 c -3.26,2.65 -9.46,2.36 -15.9,-0.51 l -3.92,9.15 c 1.9,1.61 3.71,3.31 5.48,5.05 l 0.9,0.9 c 1.72,1.73 3.38,3.51 4.98,5.36 6.56,7.58 12.07,16.11 16.24,25.38 l 23.17,-7.72 c -1.51,-11.75 2.22,-21.83 8.76,-23.02 6.96,-1.27 14.46,7.98 16.76,20.65 2.31,12.67 -1.46,23.96 -8.42,25.23" /><path
         id="path42"
         style="fill:#4d6cbd;fill-opacity:1;fill-rule:nonzero;stroke:none"
         d="m 3927.87,4521.99 c 0.86,-0.95 1.88,-1.58 3.03,-1.78 l 1.33,-0.06 2.62,0.94 c 0.86,0.53 1.69,1.27 2.47,2.17 1.17,1.36 2.22,3.11 3.06,5.13 l 7.75,-4.62 c -4.46,-8.97 -6.98,-19.08 -6.98,-29.78 0,-4.44 0.43,-8.76 1.25,-12.95 1.38,-6.99 3.84,-13.58 7.2,-19.6 l -6.03,-1.71 c -2.82,6.07 -7.68,9.77 -11.09,8.3 -1.77,-0.76 -2.8,-2.75 -3.06,-5.35 -0.24,-2.61 0.3,-5.82 1.67,-9.04 l 1.15,-2.29 c 2.88,-5.05 7.16,-7.93 10.26,-6.6 2.73,1.18 3.69,5.32 2.71,10.11 l 7.16,2.03 c 9.09,-13.63 23.04,-23.73 39.38,-27.83 l -0.51,-7.07 c -7.63,1.05 -14.21,-1.34 -14.98,-5.57 -0.7,-3.9 3.74,-8.06 10.3,-10.03 0.94,-0.28 1.92,-0.52 2.93,-0.71 1.53,-0.27 3.01,-0.41 4.44,-0.43 1.42,-0.02 2.78,0.1 4.03,0.32 2.5,0.44 4.59,1.33 5.97,2.57 l 1.13,1.37 0.59,1.56 0.03,1.4 c -0.22,1.87 -1.53,3.73 -3.6,5.32 -1.54,1.19 -3.53,2.23 -5.78,3.01 l 0.51,7.2 c 1.84,-0.31 3.7,-0.55 5.58,-0.71 1.89,-0.17 3.79,-0.25 5.72,-0.25 1.82,0 3.64,0.07 5.43,0.22 8.96,0.72 17.43,3.21 25.04,7.12 3.05,1.56 5.96,3.35 8.71,5.34 l 2.25,-5.24 c -5.09,-3.89 -7.58,-9.13 -5.56,-12.1 0.55,-0.8 1.35,-1.36 2.35,-1.69 l 1.63,-0.31 1.86,0.01 c 2.6,0.25 5.66,1.39 8.56,3.36 l 2.03,1.55 c 2.52,2.16 4.26,4.65 4.93,6.9 l 0.3,1.63 c 0.06,1.05 -0.16,2.01 -0.7,2.8 l -0.78,0.84 c -2.09,1.69 -6.05,1.51 -10.18,-0.33 l -2.51,5.86 c 1.22,1.04 2.38,2.12 3.51,3.23 l 0.58,0.59 c 1.1,1.11 2.16,2.24 3.19,3.43 4.2,4.86 7.72,10.32 10.4,16.25 l 14.84,-4.94 c -0.96,-7.52 1.42,-13.99 5.62,-14.75 4.45,-0.81 9.26,5.12 10.73,13.23 1.48,8.11 -0.95,15.35 -5.4,16.16 -3.75,0.69 -7.75,-3.43 -9.8,-9.61 l -14.05,4.67 c 2.56,7.1 3.97,14.75 3.97,22.73 0,11.05 -2.7,21.45 -7.42,30.64 l 10.65,7.89 c 4.73,-4.12 10.21,-5.51 12.71,-3 2.71,2.71 0.9,8.93 -4.05,13.88 -4.94,4.94 -11.16,6.76 -13.87,4.04 -2.23,-2.23 -1.37,-6.81 1.73,-11.12 l -9.71,-7.19 c -6.62,10.71 -16.18,19.42 -27.55,25 l 0.82,8.29 c 4.39,-0.06 7.92,1.51 8.39,4.09 0.56,3.14 -3.62,6.54 -9.35,7.58 -5.73,1.04 -10.84,-0.66 -11.41,-3.81 -0.5,-2.76 2.64,-5.7 7.28,-7.09 l -0.67,-6.89 c -7.59,2.99 -15.85,4.64 -24.5,4.64 -3.28,0 -6.47,-0.29 -9.61,-0.74 l 0.04,0.05 -1.23,-0.21 -1.47,-0.24 c -1.53,-0.29 -3.04,-0.62 -4.53,-1.01 l -1.08,-0.29 c -1.61,-0.44 -3.2,-0.93 -4.76,-1.49 l -2.24,6.66 c 4.97,1.68 8.29,4.85 7.81,7.93 -0.15,0.95 -0.64,1.8 -1.41,2.52 -2.29,2.17 -7.01,3.19 -12.19,2.38 l -2.5,-0.54 c -4,-1.1 -7.12,-3.17 -8.38,-5.48 -0.5,-0.93 -0.7,-1.88 -0.55,-2.83 0.2,-1.32 1.08,-2.44 2.43,-3.3 1.79,-1.14 4.43,-1.81 7.43,-1.83 l 2.3,0.09 2.53,-7.53 c -12.57,-5.65 -23.09,-15.06 -30.11,-26.81 l -8.7,5.19 0.09,0.41 c 0.58,3.15 0.59,6.16 0.13,8.75 -0.31,1.72 -0.82,3.26 -1.5,4.51 l -1.17,1.66 c -0.86,0.94 -1.87,1.57 -3.02,1.78 l -0.87,0.07 c -4.34,-0.01 -8.79,-5.88 -10.23,-13.74 -0.66,-3.67 -0.55,-7.17 0.15,-10 0.51,-2.03 1.33,-3.72 2.4,-4.91" /><path
         id="path44"
         style="fill:#4d6cbd;fill-opacity:1;fill-rule:nonzero;stroke:none"
         d="m 3382.67,1924.62 c -3.75,0.68 -7.76,-3.44 -9.8,-9.62 l -14.05,4.68 c 2.56,7.1 3.97,14.74 3.97,22.72 0,11.05 -2.69,21.46 -7.43,30.64 l 10.66,7.89 c 4.72,-4.11 10.2,-5.5 12.71,-2.99 2.71,2.71 0.9,8.93 -4.05,13.88 -4.94,4.94 -11.16,6.75 -13.87,4.04 -2.23,-2.24 -1.37,-6.82 1.73,-11.12 l -9.72,-7.2 c -6.62,10.72 -16.17,19.42 -27.55,25.01 l 0.82,8.29 c 4.4,-0.07 7.92,1.5 8.39,4.08 0.57,3.15 -3.61,6.54 -9.34,7.59 -5.74,1.03 -10.84,-0.66 -11.41,-3.82 -0.51,-2.75 2.64,-5.69 7.29,-7.09 l -0.69,-6.88 c -7.59,2.99 -15.85,4.64 -24.5,4.64 -3.27,0 -6.46,-0.29 -9.61,-0.75 l 0.06,0.06 -1.24,-0.21 -1.48,-0.25 c -1.52,-0.28 -3.03,-0.61 -4.52,-1 l -1.08,-0.3 c -1.61,-0.44 -3.2,-0.92 -4.76,-1.48 l -2.24,6.66 c 4.97,1.67 8.29,4.84 7.8,7.93 -0.14,0.95 -0.63,1.8 -1.4,2.52 -2.29,2.16 -7.01,3.19 -12.19,2.37 l -2.5,-0.54 c -4.01,-1.1 -7.11,-3.17 -8.37,-5.47 -0.51,-0.93 -0.72,-1.89 -0.56,-2.84 0.2,-1.31 1.08,-2.44 2.43,-3.3 1.79,-1.14 4.43,-1.8 7.42,-1.83 l 2.31,0.1 2.54,-7.53 c -12.58,-5.66 -23.1,-15.06 -30.12,-26.81 l -8.69,5.18 0.09,0.42 c 0.57,3.14 0.57,6.16 0.11,8.75 -0.3,1.71 -0.81,3.25 -1.5,4.5 l -1.16,1.66 c -0.86,0.94 -1.88,1.57 -3.03,1.78 l -0.86,0.07 c -4.34,-0.01 -8.8,-5.88 -10.23,-13.74 -0.66,-3.66 -0.56,-7.16 0.15,-10 0.51,-2.03 1.33,-3.72 2.4,-4.91 0.86,-0.95 1.88,-1.57 3.03,-1.78 l 1.32,-0.06 2.63,0.95 c 0.86,0.53 1.69,1.26 2.47,2.17 1.17,1.36 2.22,3.11 3.06,5.13 l 7.75,-4.63 c -4.46,-8.97 -6.98,-19.07 -6.98,-29.78 0,-4.43 0.43,-8.76 1.25,-12.95 1.38,-6.98 3.84,-13.58 7.2,-19.6 l -6.03,-1.7 c -2.81,6.06 -7.68,9.76 -11.09,8.3 -1.77,-0.77 -2.81,-2.76 -3.06,-5.36 -0.25,-2.6 0.29,-5.82 1.68,-9.03 l 1.14,-2.29 c 2.87,-5.05 7.17,-7.93 10.25,-6.61 2.74,1.19 3.7,5.33 2.71,10.12 l 7.17,2.02 c 9.09,-13.62 23.04,-23.73 39.37,-27.83 l -0.5,-7.06 c -7.63,1.05 -14.21,-1.34 -14.98,-5.58 -0.71,-3.89 3.74,-8.06 10.3,-10.03 0.93,-0.28 1.92,-0.51 2.93,-0.7 1.52,-0.28 3.01,-0.42 4.44,-0.44 1.42,-0.01 2.77,0.1 4.02,0.32 2.51,0.44 4.59,1.34 5.98,2.58 l 1.12,1.36 0.6,1.57 0.04,1.4 c -0.23,1.86 -1.54,3.72 -3.61,5.31 -1.55,1.19 -3.52,2.24 -5.79,3.01 l 0.52,7.21 c 1.84,-0.32 3.7,-0.55 5.58,-0.72 1.88,-0.16 3.79,-0.25 5.71,-0.25 1.83,0 3.65,0.08 5.44,0.22 8.96,0.73 17.43,3.22 25.04,7.12 3.05,1.57 5.96,3.35 8.71,5.34 l 2.25,-5.24 c -5.09,-3.89 -7.58,-9.12 -5.56,-12.1 0.55,-0.8 1.35,-1.36 2.35,-1.68 l 1.63,-0.32 1.86,0.02 c 2.6,0.25 5.66,1.39 8.55,3.36 l 2.03,1.55 c 2.52,2.16 4.26,4.64 4.94,6.9 l 0.3,1.63 c 0.06,1.04 -0.16,2 -0.7,2.79 l -0.78,0.85 c -2.09,1.69 -6.06,1.5 -10.18,-0.34 l -2.51,5.87 c 1.22,1.03 2.37,2.12 3.51,3.23 l 0.58,0.58 c 1.09,1.11 2.16,2.25 3.18,3.43 4.21,4.87 7.73,10.32 10.41,16.26 l 14.84,-4.94 c -0.96,-7.53 1.42,-13.99 5.61,-14.76 4.46,-0.81 9.26,5.12 10.74,13.24 1.47,8.11 -0.94,15.35 -5.4,16.16" /><path
         id="path46"
         style="fill:#4d6cbd;fill-opacity:1;fill-rule:nonzero;stroke:none"
         d="m 6796.04,1838.86 c -3.76,0.68 -7.77,-3.44 -9.81,-9.62 l -14.05,4.68 c 2.57,7.1 3.96,14.74 3.96,22.72 0,11.05 -2.68,21.46 -7.42,30.64 l 10.66,7.89 c 4.72,-4.12 10.2,-5.5 12.71,-3 2.71,2.72 0.9,8.93 -4.04,13.88 -4.95,4.95 -11.17,6.76 -13.88,4.05 -2.24,-2.24 -1.38,-6.82 1.73,-11.13 l -9.72,-7.19 c -6.62,10.72 -16.17,19.42 -27.55,25 l 0.82,8.3 c 4.41,-0.08 7.92,1.5 8.39,4.08 0.58,3.14 -3.61,6.54 -9.34,7.58 -5.74,1.04 -10.84,-0.67 -11.42,-3.81 -0.5,-2.75 2.66,-5.7 7.3,-7.09 l -0.69,-6.88 c -7.59,2.97 -15.85,4.63 -24.5,4.63 -3.27,0 -6.47,-0.29 -9.61,-0.74 l 0.06,0.05 -1.24,-0.2 -1.48,-0.25 c -1.52,-0.28 -3.03,-0.61 -4.52,-1 l -1.08,-0.3 c -1.61,-0.45 -3.2,-0.93 -4.76,-1.48 l -2.24,6.66 c 4.97,1.67 8.3,4.84 7.81,7.93 -0.16,0.95 -0.65,1.79 -1.41,2.52 -2.29,2.16 -7.01,3.19 -12.19,2.37 l -2.5,-0.54 c -4.01,-1.1 -7.11,-3.17 -8.37,-5.48 -0.51,-0.92 -0.72,-1.88 -0.57,-2.83 0.21,-1.32 1.09,-2.44 2.44,-3.3 1.8,-1.14 4.43,-1.8 7.42,-1.83 l 2.31,0.09 2.54,-7.53 c -12.58,-5.65 -23.1,-15.05 -30.12,-26.81 l -8.69,5.18 0.09,0.42 c 0.56,3.15 0.57,6.17 0.11,8.75 -0.3,1.72 -0.82,3.26 -1.5,4.51 l -1.16,1.66 c -0.86,0.94 -1.88,1.57 -3.03,1.78 l -0.86,0.07 c -4.35,-0.01 -8.8,-5.88 -10.22,-13.74 -0.67,-3.66 -0.57,-7.16 0.14,-10 0.51,-2.03 1.33,-3.72 2.4,-4.91 0.85,-0.95 1.88,-1.57 3.02,-1.78 l 1.33,-0.06 2.63,0.95 c 0.86,0.53 1.69,1.26 2.47,2.17 1.17,1.36 2.22,3.1 3.05,5.12 l 7.76,-4.62 c -4.46,-8.98 -6.98,-19.08 -6.98,-29.78 0,-4.43 0.43,-8.76 1.26,-12.95 1.36,-6.98 3.82,-13.58 7.18,-19.61 l -6.01,-1.69 c -2.82,6.06 -7.7,9.76 -11.11,8.29 -1.76,-0.76 -2.8,-2.75 -3.04,-5.35 -0.26,-2.61 0.28,-5.82 1.67,-9.04 l 1.14,-2.29 c 2.87,-5.04 7.17,-7.93 10.25,-6.6 2.74,1.18 3.7,5.32 2.72,10.12 l 7.16,2.02 c 9.09,-13.63 23.04,-23.73 39.37,-27.83 l -0.5,-7.06 c -7.62,1.04 -14.21,-1.34 -14.98,-5.58 -0.71,-3.89 3.73,-8.06 10.3,-10.04 0.93,-0.27 1.91,-0.51 2.93,-0.69 1.52,-0.28 3.01,-0.42 4.43,-0.44 1.43,-0.01 2.78,0.1 4.03,0.32 2.5,0.44 4.59,1.33 5.97,2.58 l 1.13,1.36 0.6,1.57 0.04,1.4 c -0.23,1.86 -1.54,3.72 -3.61,5.31 -1.55,1.19 -3.52,2.24 -5.79,3.01 l 0.52,7.2 c 1.84,-0.31 3.69,-0.55 5.58,-0.71 1.88,-0.16 3.79,-0.25 5.71,-0.25 1.84,0 3.64,0.08 5.44,0.21 8.96,0.72 17.42,3.22 25.04,7.13 3.04,1.56 5.96,3.35 8.72,5.34 l 2.24,-5.24 c -5.08,-3.89 -7.58,-9.12 -5.55,-12.1 0.54,-0.8 1.35,-1.36 2.34,-1.68 l 1.63,-0.32 1.86,0.02 c 2.61,0.25 5.66,1.38 8.55,3.36 l 2.03,1.55 c 2.52,2.16 4.26,4.64 4.94,6.88 l 0.3,1.64 c 0.06,1.05 -0.16,2.01 -0.7,2.8 l -0.78,0.85 c -2.09,1.69 -6.06,1.5 -10.18,-0.34 l -2.51,5.86 c 1.21,1.04 2.37,2.12 3.5,3.24 l 0.59,0.58 c 1.09,1.11 2.16,2.25 3.18,3.42 v 0.01 c 4.2,4.85 7.73,10.32 10.41,16.25 l 14.84,-4.94 c -0.97,-7.52 1.41,-13.99 5.61,-14.75 4.46,-0.81 9.26,5.12 10.74,13.24 1.47,8.11 -0.94,15.35 -5.39,16.16" /><path
         id="path48"
         style="fill:#ffffff;fill-opacity:1;fill-rule:nonzero;stroke:none"
         d="m 0,568.02 c 210.543,471.73 1301.46,701.75 1683.52,682.53 751.25,-37.81 935.25,306.31 978.31,582.25 75.21,482.04 958.11,183.89 937.65,664.47 -32.79,770.4 858.77,624.53 858.77,624.53 0,0 55.29,85.83 0,96.73 -55.28,10.89 -439.07,391.82 -598.25,548.75 -159.18,156.92 -95.64,344.49 -70.99,727.63 24.66,383.15 -222.3,505.09 -222.3,505.09 H 0 V 568.02" /><path
         id="path50"
         style="fill:#f2587d;fill-opacity:1;fill-rule:nonzero;stroke:none"
         d="m 2535.14,3178.63 c -34.35,6.24 -70.92,-31.41 -89.62,-87.87 l -128.36,42.72 c 23.41,64.87 36.23,134.79 36.23,207.73 0,100.92 -24.59,196.04 -67.86,279.96 l 97.41,72.12 c 43.15,-37.62 93.22,-50.29 116.13,-27.37 24.82,24.82 8.27,81.6 -36.95,126.82 -45.23,45.23 -102.01,61.77 -126.83,36.95 -20.37,-20.37 -12.52,-62.24 15.84,-101.62 l -88.78,-65.74 c -60.51,97.94 -147.85,177.51 -251.79,228.5 l 7.49,75.79 c 40.21,-0.65 72.4,13.8 76.68,37.33 5.22,28.75 -33.02,59.77 -85.4,69.29 -52.39,9.53 -99.1,-6.07 -104.33,-34.82 -4.57,-25.18 24.21,-52.11 66.63,-64.8 l -6.21,-62.98 c -69.38,27.31 -144.86,42.47 -223.93,42.47 -72.61,0 -142.23,-12.72 -206.84,-35.93 l -20.49,60.88 c 45.41,15.28 75.83,44.25 71.37,72.46 -5.48,34.67 -61.13,54.68 -124.3,44.71 -63.18,-9.98 -109.96,-46.17 -104.48,-80.84 5.09,-32.23 53.66,-51.47 111.2,-46.05 l 23.16,-68.83 c -114.96,-51.64 -211.09,-137.62 -275.24,-245.02 l -79.44,47.39 c 0.25,1.28 0.57,2.52 0.8,3.81 13.92,76.61 -8.88,144.92 -50.92,152.56 -42.05,7.64 -87.419,-48.27 -101.341,-124.89 -13.922,-76.62 8.875,-144.92 50.921,-152.56 32.13,-5.84 66.16,25.5 86.65,74.77 l 70.87,-42.27 c -40.78,-81.98 -63.83,-174.32 -63.83,-272.09 0,-108.03 28.1,-209.45 77.23,-297.54 l -55.06,-15.5 c -25.77,55.38 -70.25,89.2 -101.43,75.78 -32.24,-13.88 -37.88,-72.75 -12.6,-131.5 25.29,-58.75 71.92,-95.13 104.16,-81.25 24.99,10.76 33.77,48.62 24.78,92.45 l 65.5,18.45 c 83.07,-124.52 210.54,-216.83 359.83,-254.32 l -4.62,-64.58 c -69.68,9.56 -129.86,-12.23 -136.9,-50.94 -7.39,-40.71 46.73,-84.63 120.9,-98.1 74.17,-13.49 140.29,8.58 147.69,49.29 6.15,33.86 -30.35,69.89 -85.48,88.83 l 4.7,65.86 c 33.57,-5.7 68.01,-8.84 103.21,-8.84 133.8,0 257.49,43.07 358.2,115.94 l 20.51,-47.92 c -46.48,-35.54 -69.29,-83.41 -50.77,-110.63 19.74,-29.02 78.61,-23.39 131.5,12.59 52.88,35.97 79.75,88.66 60,117.68 -15.88,23.35 -57.11,23.91 -100.14,4.65 l -22.95,53.59 c 68.59,58.4 124.07,131.64 161.57,214.78 l 135.64,-45.16 c -8.83,-68.78 12.95,-127.81 51.28,-134.78 40.7,-7.4 84.62,46.73 98.1,120.9 13.47,74.17 -8.59,140.29 -49.29,147.69" /><path
         id="path52"
         style="fill:#f1456b;fill-opacity:1;fill-rule:nonzero;stroke:none"
         d="m 1654.17,3580.3 c 0,45.72 -37.06,82.77 -82.77,82.77 -45.71,0 -82.76,-37.05 -82.76,-82.77 0,-45.71 37.05,-82.76 82.76,-82.76 45.71,0 82.77,37.05 82.77,82.76" /><path
         id="path54"
         style="fill:#f1456b;fill-opacity:1;fill-rule:nonzero;stroke:none"
         d="m 1627.84,3189.84 c -45.71,0 -82.76,-37.05 -82.76,-82.76 0,-45.71 37.05,-82.76 82.76,-82.76 45.71,0 82.77,37.05 82.77,82.76 0,45.71 -37.06,82.76 -82.77,82.76" /><path
         id="path56"
         style="fill:#f1456b;fill-opacity:1;fill-rule:nonzero;stroke:none"
         d="m 1920.16,3580.3 c 62.9,0 113.89,50.99 113.89,113.9 0,62.9 -50.99,113.89 -113.89,113.89 -62.9,0 -113.9,-50.99 -113.9,-113.89 0,-62.91 51,-113.9 113.9,-113.9" /><path
         id="path58"
         style="fill:#f1456b;fill-opacity:1;fill-rule:nonzero;stroke:none"
         d="m 2002.92,3107.08 c -45.71,0 -82.76,-37.06 -82.76,-82.76 0,-45.72 37.05,-82.77 82.76,-82.77 45.71,0 82.77,37.05 82.77,82.77 0,45.7 -37.06,82.76 -82.77,82.76" /><path
         id="path60"
         style="fill:#f1456b;fill-opacity:1;fill-rule:nonzero;stroke:none"
         d="m 1946.86,3354.3 c 0,39.01 -31.63,70.64 -70.65,70.64 -39.01,0 -70.64,-31.63 -70.64,-70.64 0,-39.02 31.63,-70.65 70.64,-70.65 39.02,0 70.65,31.63 70.65,70.65" /><path
         id="path62"
         style="fill:#f1456b;fill-opacity:1;fill-rule:nonzero;stroke:none"
         d="m 1347.67,3424.94 c -22.84,0 -41.38,-18.53 -41.38,-41.38 0,-22.86 18.54,-41.38 41.38,-41.38 22.86,0 41.39,18.52 41.39,41.38 0,22.85 -18.53,41.38 -41.39,41.38" /><path
         id="path64"
         style="fill:#ffffff;fill-opacity:1;fill-rule:nonzero;stroke:none"
         d="m 1696.52,2551.3 c 11.76,8.25 19.64,18.66 22.26,30.77 -2.62,-12.11 -10.5,-22.52 -22.26,-30.77 m 22.35,31.18 c 0,0.01 0,0.02 0.01,0.03 -0.01,-0.01 -0.01,-0.02 -0.01,-0.03 m 418.97,292.72 v 0 c 0.24,0.21 0.48,0.41 0.72,0.62 -0.24,-0.21 -0.48,-0.41 -0.72,-0.62 m 0.9,0.77 c 0.17,0.15 0.34,0.29 0.51,0.44 -0.17,-0.15 -0.34,-0.29 -0.51,-0.44 m -922.87,778.52 -79.44,47.39 79.44,-47.38 c 59.89,100.26 147.66,181.86 252.59,234.27 -104.93,-52.41 -192.7,-134.01 -252.59,-234.28 m 319.67,263.01 c 0,0 0.01,0.01 0.02,0.01 -0.01,0 -0.01,-0.01 -0.02,-0.01 m -21.38,60.56 v 0 c 44.79,15.07 74.99,43.46 71.53,71.3 3.46,-27.84 -26.73,-56.23 -71.53,-71.3" /><path
         id="path66"
         style="fill:#f14976;fill-opacity:1;fill-rule:nonzero;stroke:none"
         d="m 1614.3,2530.2 c -13.72,0 -28.17,1.27 -42.93,3.96 v 0 c -69.68,12.66 -121.67,52.19 -121.57,90.67 0,2.49 0.23,4.96 0.67,7.43 5.93,32.59 49.5,53.18 104.71,53.18 10.37,0 21.17,-0.73 32.19,-2.24 l 4.62,64.58 v 0 c -149.29,37.49 -276.76,129.8 -359.83,254.32 l -65.5,-18.45 v 0 c 2.3,-11.21 3.44,-22.04 3.44,-32.12 0,-29.31 -9.62,-52.32 -28.22,-60.33 -4.64,-1.99 -9.57,-2.95 -14.7,-2.95 -30.51,0 -67.81,33.9 -89.46,84.2 -10.66,24.78 -15.83,49.59 -15.81,71.03 0.02,29.38 9.77,52.45 28.41,60.47 4.61,1.99 9.52,2.94 14.61,2.94 29.33,0 64.87,-31.53 86.82,-78.72 l 55.06,15.5 v 0 c -49.13,88.09 -77.23,189.51 -77.23,297.54 0,97.77 23.05,190.11 63.83,272.09 v 0 0 l -70.87,42.27 c -18.85,-45.32 -49.15,-75.47 -78.89,-75.47 -2.59,0 -5.18,0.23 -7.76,0.7 -33.67,6.12 -54.999,51.14 -55.007,108.17 -0.004,14.19 1.312,29.13 4.086,44.39 13.07,71.92 53.841,125.59 93.571,125.59 2.59,0 5.19,-0.23 7.77,-0.7 33.67,-6.12 54.99,-51.14 55.01,-108.17 0,-14.19 -1.31,-29.13 -4.09,-44.39 -0.23,-1.29 -0.55,-2.53 -0.8,-3.81 v 0 0 l 79.44,-47.39 c 59.89,100.27 147.66,181.87 252.59,234.28 7.47,3.73 15.02,7.31 22.65,10.74 v 0 0 l -23.16,68.83 c -6.5,-0.61 -12.88,-0.91 -19.1,-0.91 -48.86,0 -87.59,18.37 -92.1,46.96 -0.29,1.83 -0.43,3.66 -0.44,5.49 -0.06,32.92 45.07,65.9 104.92,75.35 11,1.73 21.76,2.56 32.08,2.56 48.94,0 87.7,-18.64 92.22,-47.27 0.06,-0.39 0.11,-0.77 0.16,-1.16 3.46,-27.84 -26.74,-56.23 -71.53,-71.3 v 0 0 l 20.49,-60.88 c 0.29,0.11 0.59,0.22 0.89,0.32 0.01,0 0.01,0.01 0.02,0.01 37.94,13.56 77.63,23.4 118.61,29.27 0,0 -332.56,-304.48 -223.54,-704.22 72.87,-267.15 344.95,-341.89 550.21,-341.88 101.64,0.01 186.93,18.34 223.47,40.72 -20.07,-23.22 -41.75,-45.02 -65.06,-64.99 -0.17,-0.15 -0.34,-0.29 -0.51,-0.44 -0.06,-0.05 -0.12,-0.1 -0.18,-0.15 -0.24,-0.21 -0.48,-0.41 -0.72,-0.62 v 0 0 l 22.95,-53.59 c 20.2,9.04 40,13.71 56.97,13.71 19.18,0 34.75,-5.97 43.17,-18.36 4.4,-6.46 6.48,-14.09 6.49,-22.46 0,-29.19 -25.39,-67.25 -66.49,-95.22 -30.14,-20.5 -62.21,-31.14 -87.88,-31.14 -19.39,0 -35.13,6.07 -43.62,18.55 -4.38,6.44 -6.45,14.02 -6.44,22.33 0.02,26.83 21.71,61.16 57.21,88.3 v 0 0 l -20.51,47.92 c -100.71,-72.87 -224.4,-115.94 -358.2,-115.94 -35.2,0 -69.64,3.14 -103.21,8.84 l -4.7,-65.86 v 0 c 51.04,-17.53 86.11,-49.72 86.15,-81.27 0.01,-2.52 -0.22,-5.05 -0.67,-7.56 v 0 c -0.06,-0.32 -0.12,-0.63 -0.18,-0.94 -0.01,-0.01 -0.01,-0.02 -0.01,-0.03 -0.03,-0.14 -0.06,-0.28 -0.09,-0.41 -2.62,-12.11 -10.5,-22.52 -22.26,-30.77 -19.12,-13.41 -48.5,-21.1 -82.22,-21.1 m -266.63,894.74 c -22.84,0 -41.38,-18.53 -41.38,-41.38 0,-22.86 18.54,-41.38 41.38,-41.38 22.86,0 41.39,18.52 41.39,41.38 0,22.85 -18.53,41.38 -41.39,41.38" /><path
         id="path68"
         style="fill:#f03864;fill-opacity:1;fill-rule:nonzero;stroke:none"
         d="m 1347.67,3342.18 c -22.84,0 -41.38,18.52 -41.38,41.38 0,22.85 18.54,41.38 41.38,41.38 22.86,0 41.39,-18.53 41.39,-41.38 0,-22.86 -18.53,-41.38 -41.39,-41.38" /><path
         id="path70"
         style="fill:#c1d0ee;fill-opacity:1;fill-rule:nonzero;stroke:none"
         d="m 1056.09,4391.95 c -47.86,0 -86.656,-38.79 -86.656,-86.65 0,-47.86 38.796,-86.65 86.656,-86.65 47.86,0 86.65,38.79 86.65,86.65 0,47.86 -38.79,86.65 -86.65,86.65" /><path
         id="path72"
         style="fill:#c1d0ee;fill-opacity:1;fill-rule:nonzero;stroke:none"
         d="m 3290.55,4184.71 c -47.85,0 -86.65,-38.79 -86.65,-86.65 0,-47.86 38.8,-86.65 86.65,-86.65 47.86,0 86.66,38.79 86.66,86.65 0,47.86 -38.8,86.65 -86.66,86.65" /><path
         id="path74"
         style="fill:#c1d0ee;fill-opacity:1;fill-rule:nonzero;stroke:none"
         d="m 1601.4,2206.76 c -50.38,0 -91.22,-40.84 -91.22,-91.22 0,-50.38 40.84,-91.23 91.22,-91.23 50.38,0 91.23,40.85 91.23,91.23 0,50.38 -40.85,91.22 -91.23,91.22" /><path
         id="path76"
         style="fill:#c1d0ee;fill-opacity:1;fill-rule:nonzero;stroke:none"
         d="m 476.676,4025.62 c -50.383,0 -91.227,-40.84 -91.227,-91.23 0,-50.38 40.844,-91.22 91.227,-91.22 50.379,0 91.222,40.84 91.222,91.22 0,50.39 -40.843,91.23 -91.222,91.23" /><path
         id="path78"
         style="fill:#c1d0ee;fill-opacity:1;fill-rule:nonzero;stroke:none"
         d="m 1958.99,4742.52 c -65.17,0 -118,-52.83 -118,-118 0,-65.17 52.83,-118 118,-118 65.17,0 118,52.83 118,118 0,65.17 -52.83,118 -118,118" /><path
         id="path80"
         style="fill:#c1d0ee;fill-opacity:1;fill-rule:nonzero;stroke:none"
         d="m 654.555,2968.2 c -47.86,0 -86.657,-38.79 -86.657,-86.65 0,-47.86 38.797,-86.65 86.657,-86.65 47.855,0 86.656,38.79 86.656,86.65 0,47.86 -38.801,86.65 -86.656,86.65" /><path
         id="path82"
         style="fill:#c1d0ee;fill-opacity:1;fill-rule:nonzero;stroke:none"
         d="m 2440.72,4184.71 c -23.93,0 -43.33,-19.4 -43.33,-43.32 0,-23.93 19.4,-43.33 43.33,-43.33 23.93,0 43.33,19.4 43.33,43.33 0,23.92 -19.4,43.32 -43.33,43.32" /><path
         id="path84"
         style="fill:#c1d0ee;fill-opacity:1;fill-rule:nonzero;stroke:none"
         d="m 2032.92,1821.23 c -23.93,0 -43.33,-19.4 -43.33,-43.33 0,-23.93 19.4,-43.33 43.33,-43.33 23.93,0 43.33,19.4 43.33,43.33 0,23.93 -19.4,43.33 -43.33,43.33" /><path
         id="path86"
         style="fill:#c1d0ee;fill-opacity:1;fill-rule:nonzero;stroke:none"
         d="m 3093.12,2692.87 c -23.94,0 -43.33,-19.39 -43.33,-43.32 0,-23.93 19.39,-43.33 43.33,-43.33 23.93,0 43.32,19.4 43.32,43.33 0,23.93 -19.39,43.32 -43.32,43.32" /><path
         id="path88"
         style="fill:#c1d0ee;fill-opacity:1;fill-rule:nonzero;stroke:none"
         d="m 567.898,1655.78 c -23.929,0 -43.328,-19.4 -43.328,-43.33 0,-23.92 19.399,-43.33 43.328,-43.33 23.926,0 43.329,19.41 43.329,43.33 0,23.93 -19.403,43.33 -43.329,43.33" /><path
         id="path90"
         style="fill:#c1d0ee;fill-opacity:1;fill-rule:nonzero;stroke:none"
         d="m 2995.37,3337.62 c -23.93,0 -43.33,-19.4 -43.33,-43.32 0,-23.93 19.4,-43.33 43.33,-43.33 23.93,0 43.32,19.4 43.32,43.33 0,23.92 -19.39,43.32 -43.32,43.32" /><path
         id="path92"
         style="fill:#c1d0ee;fill-opacity:1;fill-rule:nonzero;stroke:none"
         d="m 1056.09,2322.01 c -23.93,0 -43.33,-19.39 -43.33,-43.32 0,-23.93 19.4,-43.33 43.33,-43.33 23.93,0 43.33,19.4 43.33,43.33 0,23.93 -19.4,43.32 -43.33,43.32" /><path
         id="path94"
         style="fill:#c1d0ee;fill-opacity:1;fill-rule:nonzero;stroke:none"
         d="m 2504.73,2470.88 c -41.11,0 -74.44,-33.33 -74.44,-74.43 0,-41.11 33.33,-74.44 74.44,-74.44 41.1,0 74.43,33.33 74.43,74.44 0,41.1 -33.33,74.43 -74.43,74.43" /><path
         id="path96"
         style="fill:#344fa9;fill-opacity:1;fill-rule:nonzero;stroke:none"
         d="m 5546.82,353.68 c -422.66,0 -765.28,47.98 -765.28,107.172 0,59.187 342.62,107.168 765.28,107.168 422.64,0 765.27,-47.981 765.27,-107.168 0,-59.192 -342.63,-107.172 -765.27,-107.172" /><path
         id="path98"
         style="fill:#292e44;fill-opacity:1;fill-rule:nonzero;stroke:none"
         d="M 5387.36,826.16 V 644.559 L 5250.72,599.34 c -66.29,-21.949 -114.24,-79.789 -123.5,-149 h 484.92 l 12.42,377.808 -237.2,-1.988" /><path
         id="path100"
         style="fill:#9695cc;fill-opacity:1;fill-rule:nonzero;stroke:none"
         d="m 5196.9,490.539 357.62,-8.457 c 2.76,-0.062 5.05,2.117 5.12,4.879 0.06,2.758 -2.12,5.051 -4.88,5.121 l -357.62,8.457 c -2.76,0.063 -5.05,-2.117 -5.12,-4.879 -0.06,-2.769 2.12,-5.058 4.88,-5.121" /><path
         id="path102"
         style="fill:#2d324a;fill-opacity:1;fill-rule:nonzero;stroke:none"
         d="M 5748.53,746.16 V 644.559 L 5611.88,599.34 c -66.28,-21.949 -114.23,-79.789 -123.5,-149 h 484.92 l 12.42,348.039 -237.19,-52.219" /><path
         id="path104"
         style="fill:#ffffff;fill-opacity:1;fill-rule:nonzero;stroke:none"
         d="m 5528.41,482.082 h 403.91 c 2.77,0 5,2.238 5,5 0,2.758 -2.23,5 -5,5 h -403.91 c -2.76,0 -5,-2.242 -5,-5 0,-2.762 2.24,-5 5,-5" /><path
         id="path106"
         style="fill:#5daede;fill-opacity:1;fill-rule:nonzero;stroke:none"
         d="m 4705.25,2916.69 c 0,0 -135.34,113.17 -151.02,193.57 -15.69,80.39 87.21,91.79 244.96,-40.19 l -93.94,-153.38" /><path
         id="path108"
         style="fill:#2d324a;fill-opacity:1;fill-rule:nonzero;stroke:none"
         d="m 5408.81,2350.38 c 0,0 -226.95,1261.74 176.09,1335.1 403.05,73.36 769.06,91.89 898.78,-288.02 129.73,-379.91 32.43,-1065.6 -92.65,-1204.6 -125.1,-138.99 -921.99,-129.73 -982.22,157.52" /><path
         id="path110"
         style="fill:#ffffff;fill-opacity:1;fill-rule:nonzero;stroke:none"
         d="m 6106.84,2495 h 396.14 c 2.76,0 5,2.24 5,5 0,2.76 -2.24,5 -5,5 h -396.14 c -2.77,0 -5,-2.24 -5,-5 0,-2.76 2.23,-5 5,-5" /><path
         id="path112"
         style="fill:#ffffff;fill-opacity:1;fill-rule:nonzero;stroke:none"
         d="m 5529.53,3587.52 c 0,0 59.63,34.08 55.37,97.96 -4.26,63.89 -84.19,85.09 -108.27,334.68 -24.08,249.59 66.45,448.49 319.65,426.93 237.13,-20.19 299.94,-236.45 273.67,-385.33 -26.27,-148.88 -83.19,-258.35 -131.36,-304.32 0,0 -30.65,-111.66 26.27,-140.13 56.93,-28.46 232.07,-39.44 318.03,-225.67 85.96,-186.24 225.64,-490.67 157.59,-687.65 -68.05,-196.98 -179.07,-222.05 -286.52,-275.78 0,0 76.66,-706.91 10.75,-1043.78 -65.91,-336.85 -119.7,-593.16 -198.99,-637.098 -79.29,-43.941 -286.31,-91.262 -300.95,84.5 0,0 -58.21,-110.902 -233.46,-92.211 -182.35,19.438 -218.29,565.229 -206.6,845.909 11.7,280.67 38.98,682.18 116.94,736.76 0,0 -36.99,351.16 17.59,631.83 0,0 39.43,-308.78 -346.49,-219.12 -385.91,89.66 -355.39,229.25 -244.63,316.25 83.38,65.5 171.16,-48.28 378.12,-35.09 185.48,11.82 2.04,546.31 383.29,571.36" /><path
         id="path114"
         style="fill:#2d324a;fill-opacity:1;fill-rule:nonzero;stroke:none"
         d="m 5693.14,3505.75 c -0.02,-0.19 -49.6,-453.08 -49.61,-832.8 0,-126.41 5.47,-244.68 20.24,-335.95 l 19.74,3.19 c -14.48,89.39 -19.99,206.97 -19.98,332.76 -0.01,189.04 12.36,396.78 24.74,557.18 6.19,80.21 12.38,148.59 17.02,196.9 2.32,24.16 4.25,43.31 5.6,56.41 1.36,13.09 2.12,20.11 2.13,20.13 l -19.88,2.18" /><path
         id="path116"
         style="fill:#ffffff;fill-opacity:1;fill-rule:nonzero;stroke:none"
         d="m 5659.46,861.289 c 0,0 -121.82,580.151 -8.69,1244.251" /><path
         id="path118"
         style="fill:#ced0cd;fill-opacity:1;fill-rule:nonzero;stroke:none"
         d="m 5669.25,863.34 c 0,0.012 -0.21,1 -0.62,3.051 -6.16,30.668 -55.99,290.319 -55.98,648.549 0,177.42 12.22,379.01 47.98,588.92 0.93,5.44 -2.74,10.61 -8.18,11.53 -5.44,0.93 -10.61,-2.73 -11.54,-8.17 -35.99,-211.26 -48.26,-413.95 -48.26,-592.28 0,-384.08 56.93,-655.241 57.03,-655.71 1.13,-5.398 6.43,-8.859 11.84,-7.73 5.4,1.141 8.86,6.441 7.73,11.84" /><path
         id="path120"
         style="fill:#fab6c2;fill-opacity:1;fill-rule:nonzero;stroke:none"
         d="m 5690.63,4220.46 c 197.46,8.41 214.26,-100.83 203.76,-144.94 -10.5,-44.11 -25.2,-117.64 -214.26,-102.93 -92.88,7.22 -186.85,1.99 -186.85,114.7 0,114.04 96.9,128.9 197.35,133.17" /><path
         id="path122"
         style="fill:#ffffff;fill-opacity:1;fill-rule:nonzero;stroke:none"
         d="m 5616.75,4058.14 c 0,-39.64 -32.14,-71.78 -71.78,-71.78 -39.65,0 -71.78,32.14 -71.78,71.78 0,39.64 32.13,71.78 71.78,71.78 39.64,0 71.78,-32.14 71.78,-71.78" /><path
         id="path124"
         style="fill:#273146;fill-opacity:1;fill-rule:nonzero;stroke:none"
         d="m 5616.75,4058.14 h -10 c -0.01,-17.09 -6.9,-32.47 -18.1,-43.68 -11.21,-11.2 -26.59,-18.09 -43.68,-18.1 -17.09,0.01 -32.48,6.9 -43.69,18.1 -11.19,11.21 -18.08,26.59 -18.09,43.68 0.01,17.09 6.9,32.47 18.09,43.68 11.22,11.2 26.6,18.09 43.69,18.1 17.09,-0.01 32.47,-6.9 43.68,-18.1 11.2,-11.21 18.09,-26.59 18.1,-43.68 h 10 10 c -0.01,45.16 -36.61,81.77 -81.78,81.78 -45.18,-0.01 -81.77,-36.62 -81.78,-81.78 0.01,-45.17 36.61,-81.77 81.78,-81.78 45.17,0.01 81.77,36.61 81.78,81.78 h -10" /><path
         id="path126"
         style="fill:#ffffff;fill-opacity:1;fill-rule:nonzero;stroke:none"
         d="m 5880.84,4058.14 c 0,-42.75 -39.35,-77.39 -87.88,-77.39 -48.54,0 -87.88,34.64 -87.88,77.39 0,42.74 39.34,77.39 87.88,77.39 48.53,0 87.88,-34.65 87.88,-77.39" /><path
         id="path128"
         style="fill:#273146;fill-opacity:1;fill-rule:nonzero;stroke:none"
         d="m 5880.84,4058.14 h -10 c -0.01,-18.24 -8.33,-34.83 -22.35,-47.22 -14.01,-12.35 -33.65,-20.18 -55.53,-20.17 -21.88,-0.01 -41.52,7.82 -55.53,20.17 -14.03,12.39 -22.34,28.98 -22.35,47.22 0.01,18.24 8.32,34.83 22.35,47.22 14.01,12.34 33.65,20.18 55.53,20.17 21.88,0.01 41.52,-7.83 55.53,-20.17 14.02,-12.39 22.34,-28.98 22.35,-47.22 h 10 10 c 0.01,24.5 -11.35,46.61 -29.13,62.23 -17.8,15.66 -42.1,25.15 -68.75,25.16 -26.66,-0.01 -50.95,-9.5 -68.75,-25.16 -17.79,-15.62 -29.14,-37.73 -29.13,-62.23 -0.01,-24.51 11.34,-46.61 29.13,-62.23 17.8,-15.66 42.09,-25.16 68.75,-25.16 26.65,0 50.95,9.5 68.75,25.16 17.78,15.62 29.14,37.72 29.13,62.23 h -10" /><path
         id="path130"
         style="fill:#273146;fill-opacity:1;fill-rule:nonzero;stroke:none"
         d="m 5623.31,4043.04 -2.89,3.32 2.85,-3.36 0.04,0.04 -2.89,3.32 2.85,-3.36 c 0.04,0.04 3.95,3.32 10.51,6.49 6.58,3.17 15.73,6.21 26.52,6.21 11.16,-0.04 24.2,-3.1 39.09,-13.34 l 11.37,16.45 c -17.92,12.42 -35.44,16.92 -50.46,16.89 -15.03,-0.01 -27.41,-4.33 -36.03,-8.6 -8.64,-4.3 -13.61,-8.57 -14.08,-8.97 l 13.12,-15.09" /><path
         id="path132"
         style="fill:#273146;fill-opacity:1;fill-rule:nonzero;stroke:none"
         d="m 5686.33,4017.2 c 52.41,-5.73 130.58,-67.23 152.51,-140.93 21.92,-73.7 -14.5,-184.9 -152.51,-171.97 -138.01,12.93 -163.22,131.46 -164.04,179.73 -0.86,51.14 25.09,148.38 164.04,133.17" /><path
         id="path134"
         style="fill:#273146;fill-opacity:1;fill-rule:nonzero;stroke:none"
         d="m 5840.14,3866.36 c 0.69,0.1 40.04,5.31 88.91,28.56 48.82,23.22 107.4,64.75 145.02,137.39 2.53,4.9 0.62,10.94 -4.29,13.48 -4.9,2.54 -10.94,0.62 -13.47,-4.28 -35.08,-67.74 -89.67,-106.53 -135.85,-128.53 -23.07,-10.99 -43.97,-17.72 -59.02,-21.68 -7.53,-1.98 -13.59,-3.27 -17.73,-4.06 -2.07,-0.4 -3.66,-0.67 -4.71,-0.83 l -1.16,-0.18 -0.31,-0.05 c -5.48,-0.72 -9.33,-5.74 -8.61,-11.22 0.73,-5.47 5.75,-9.33 11.23,-8.6" /><path
         id="path136"
         style="fill:#273146;fill-opacity:1;fill-rule:nonzero;stroke:none"
         d="m 5474.96,3939.86 c 0.21,-0.59 3.11,-9.45 10.2,-19.41 3.56,-4.98 8.21,-10.25 14.25,-14.75 6.02,-4.5 13.52,-8.2 22.35,-9.74 5.44,-0.95 10.62,2.69 11.58,8.13 0.95,5.44 -2.69,10.62 -8.13,11.57 -5.4,0.95 -9.9,3.14 -13.86,6.08 -5.92,4.38 -10.45,10.59 -13.35,15.72 -1.45,2.56 -2.5,4.83 -3.16,6.41 l -0.72,1.79 -0.14,0.4 -0.03,0.07 -3.7,-1.25 3.71,1.21 -0.01,0.04 -3.7,-1.25 3.71,1.21 c -1.72,5.25 -7.37,8.11 -12.61,6.39 -5.25,-1.72 -8.11,-7.37 -6.39,-12.62" /><path
         id="path138"
         style="fill:#ffffff;fill-opacity:1;fill-rule:nonzero;stroke:none"
         d="m 5646.01,3998.49 c -0.04,-0.2 -10.24,-50.12 -10.24,-109.78 0.06,-52.25 7.65,-112.08 37.95,-152.9 1.65,-2.22 4.79,-2.68 7,-1.03 2.22,1.65 2.67,4.79 1.02,7 -28.07,37.5 -36.04,95.65 -35.97,146.93 0,29.26 2.51,56.26 5.03,75.91 1.25,9.83 2.51,17.82 3.45,23.34 0.47,2.76 0.86,4.9 1.14,6.35 0.27,1.45 0.42,2.17 0.42,2.18 0.55,2.7 -1.2,5.34 -3.9,5.89 -2.71,0.56 -5.35,-1.19 -5.9,-3.89" /><path
         id="path140"
         style="fill:#2d324a;fill-opacity:1;fill-rule:nonzero;stroke:none"
         d="m 5544.97,3673.5 c 0,0 -31.96,-267.67 -58.06,-545.89 -22.02,-234.77 -52.29,-433.26 -129.47,-528.55 -19.8,-24.46 -59.3,-9.56 -57.69,21.86 5.15,101.79 37.39,268.41 45.39,473.32 11.81,302.63 24.1,595.3 199.83,579.26" /><path
         id="path142"
         style="fill:#2d324a;fill-opacity:1;fill-rule:nonzero;stroke:none"
         d="m 6137.34,3711.33 c 0,0 -341.71,-526.05 13.63,-1077.61 l 60.98,-13.27 c 0,0 -203.46,608.94 12.3,1064.86 l -86.91,26.02" /><path
         id="path144"
         style="fill:#191d29;fill-opacity:1;fill-rule:nonzero;stroke:none"
         d="m 5237.06,2933.58 c 53.19,-16.03 93.22,-37.2 124.27,-62.96 46.52,-38.64 73.47,-87.95 93.32,-148.26 19.81,-60.24 32.17,-131.15 49.44,-210.97 10.85,-50.07 31.73,-159.51 63.52,-295.19 47.71,-203.59 119.96,-466.47 220.57,-679.25 50.34,-106.4 107.72,-200.33 173.28,-268.22 32.78,-33.93 67.65,-61.36 104.81,-80.37 37.15,-19.01 76.64,-29.53 118.12,-29.52 1.14,0 2.27,0 3.39,0.02 65.87,0.88 123.13,19.98 171.36,52.83 72.39,49.3 124.41,128.91 158.44,223.72 34.04,94.85 50.17,205.15 50.18,316.95 -0.08,187.06 -45.05,378.29 -129.38,508.32 -3.01,4.63 -9.21,5.95 -13.84,2.94 -4.63,-3.01 -5.94,-9.2 -2.94,-13.83 81.41,-125.17 126.23,-313.6 126.16,-497.43 0.04,-146.5 -28.39,-290.06 -87.76,-396.39 -29.67,-53.18 -66.97,-97.03 -112.11,-127.74 -45.18,-30.71 -98.2,-48.49 -160.37,-49.37 -1.05,-0.02 -2.09,-0.02 -3.13,-0.02 -50.76,0.01 -98.24,17.01 -143.23,47.77 -78.68,53.77 -148.82,150.15 -209.46,267.43 -91.06,175.9 -161.05,398.37 -211.69,593.22 -50.66,194.91 -82.01,362.03 -96.37,428.37 -22.97,105.75 -37.14,197.39 -73.71,272.19 -18.3,37.36 -42.37,70.45 -75.82,98.19 -33.45,27.76 -76.11,50.1 -131.28,66.72 -5.29,1.59 -10.87,-1.4 -12.46,-6.69 -1.6,-5.29 1.4,-10.87 6.69,-12.46" /><path
         id="path146"
         style="fill:#2d324a;fill-opacity:1;fill-rule:nonzero;stroke:none"
         d="m 4458.25,3218.53 c 17.85,-1.65 34.14,-8.77 49.93,-17.61 3.91,-2.38 7.91,-4.39 11.58,-7.62 3.69,-3.11 6.96,-7.71 10.2,-12.4 3.22,-4.74 6.42,-9.61 9.96,-13.25 3.54,-3.67 7.46,-5.97 11.69,-7.2 l 100.73,-32.15 c 67.06,-21.82 134.62,-41.84 201.96,-62.64 67.59,-19.91 135.17,-39.88 203.08,-58.66 67.92,-18.77 135.93,-37.22 204.55,-53.5 l -9.07,-31.87 c -66.9,22.32 -134.43,42.46 -202.05,62.29 -67.62,19.82 -135.58,38.44 -203.52,57.13 -68.2,17.8 -136.17,36.37 -204.65,53.16 l -102.56,25.74 c -4.25,1.18 -8.79,1.29 -13.73,0.04 -4.92,-1.23 -10.21,-3.68 -15.45,-6.02 -5.23,-2.27 -10.43,-4.46 -15.21,-5.15 -4.81,-0.83 -9.27,-0.43 -13.84,-0.39 -18.09,0.81 -35.69,3.33 -51.72,11.34 l 28.12,98.76" /><path
         id="path148"
         style="fill:#5daede;fill-opacity:1;fill-rule:nonzero;stroke:none"
         d="m 4720.32,3012.4 c 0,0 -85.69,94.7 -66.84,126.59 18.84,31.89 112.29,-79.24 112.29,-79.24 l -45.45,-47.35" /><path
         id="path150"
         style="fill:#5daede;fill-opacity:1;fill-rule:nonzero;stroke:none"
         d="m 5775.83,2492.29 -149.46,-56.66 c 0,0 -111.27,38.07 -133.72,0 -22.45,-38.06 40.02,-36.11 40.02,-36.11 0,0 -86.53,-20.98 -59.54,-106.4 52.85,-167.29 231.96,-5.39 231.96,-5.39 74.34,21.8 156.51,52.26 156.51,52.26 l -85.77,152.3" /><path
         id="path152"
         style="fill:#ffffff;fill-opacity:1;fill-rule:nonzero;stroke:none"
         d="m 6185.68,2964.25 c 0,0 34.16,-161.46 -139.71,-254.61 -173.88,-93.15 -279.46,-133.51 -270.14,-217.35 9.32,-83.83 58.99,-214.24 183.19,-167.67 124.2,46.58 184.14,90.63 265.23,136.76" /><path
         id="path154"
         style="fill:#ced0cd;fill-opacity:1;fill-rule:nonzero;stroke:none"
         d="m 6175.9,2962.18 0.01,-0.05 c 0.2,-0.98 2.49,-12.84 2.49,-31.27 0,-25.03 -4.23,-62.05 -23.37,-100.7 -19.17,-38.64 -53.09,-79.14 -113.79,-111.71 -83.2,-44.59 -150.86,-77.05 -198.69,-108.68 -23.9,-15.85 -42.95,-31.51 -56.37,-48.94 -13.42,-17.36 -20.98,-36.89 -20.92,-58.47 0,-3.67 0.21,-7.4 0.63,-11.18 4.15,-37 15.67,-82.43 38.14,-119.67 11.26,-18.6 25.33,-35.2 42.89,-47.27 17.52,-12.07 38.63,-19.43 62.73,-19.4 16.32,0 33.95,3.32 52.88,10.42 125.2,46.94 186.24,91.69 266.66,137.43 4.8,2.73 6.48,8.84 3.75,13.64 -2.73,4.8 -8.84,6.47 -13.64,3.74 -81.74,-46.52 -140.58,-89.86 -263.79,-136.09 -17.04,-6.39 -32.26,-9.14 -45.86,-9.14 -20.08,0.03 -36.8,5.89 -51.41,15.89 -21.86,14.96 -38.75,39.83 -50.67,67.83 -11.94,27.95 -18.92,58.82 -21.8,84.83 -0.34,3.08 -0.51,6.06 -0.51,8.97 0.06,17 5.5,31.5 16.77,46.28 16.89,22.1 47.61,43.76 89.95,67.81 42.3,24.1 96.02,50.8 158.71,84.37 64.13,34.31 101.43,78.29 122.27,120.47 20.87,42.18 25.44,82.33 25.44,109.57 0,21.42 -2.82,34.93 -2.93,35.46 -1.15,5.4 -6.45,8.85 -11.86,7.71 -5.4,-1.14 -8.85,-6.45 -7.71,-11.85" /></g></g></svg>